<svg width="32" height="32" viewBox="0 0 32 32" fill="none" xmlns="http://www.w3.org/2000/svg">
  <defs>
    <linearGradient id="pointer-body" x1="6" y1="4" x2="24" y2="28" gradientUnits="userSpaceOnUse">
      <stop offset="0" stop-color="#FDF8F2" />
      <stop offset="1" stop-color="#E0D0C0" />
    </linearGradient>
    <linearGradient id="pointer-shadow" x1="13" y1="16" x2="20" y2="26" gradientUnits="userSpaceOnUse">
      <stop offset="0" stop-color="#640D14" stop-opacity="0.35" />
      <stop offset="1" stop-color="#640D14" stop-opacity="0.05" />
    </linearGradient>
  </defs>
  <path
    d="M6 4.5V25.8L10.9 21.3C11.3 21 11.9 21 12.2 21.4L16.4 27.7L20.9 25.2L16.1 18.4C15.8 18 16 17.4 16.6 17.4H23.7L6 4.5Z"
    fill="url(#pointer-body)" stroke="#640D14" stroke-width="1.2" stroke-linejoin="round"
  />
  <path
    d="M16.4 27.7L20.9 25.2L19 22.5L14.6 24.8C14.2 25 13.7 24.9 13.5 24.5L10.8 20.6L6 25.1V25.8L10.9 21.3C11.3 21 11.9 21 12.2 21.4L16.4 27.7Z"
    fill="url(#pointer-shadow)"
  />
  <path
    d="M7.9 8.4L19.7 17.4H16.6C16 17.4 15.8 18 16.1 18.4L20.9 25.2L16.4 27.7L12.2 21.4C11.9 21 11.3 21 10.9 21.3L6 25.8V4.5L7.9 8.4Z"
    fill="#FFFFFF" fill-opacity="0.08"
  />
</svg>
